%TF.GenerationSoftware,Altium Limited,Altium Designer,25.4.2 (15)*%
G04 Layer_Color=0*
%FSLAX45Y45*%
%MOMM*%
%TF.SameCoordinates,66F4134D-3AC1-430F-A947-466B4C1FB81F*%
%TF.FilePolarity,Positive*%
%TF.FileFunction,Plated,1,2,PTH,Drill*%
%TF.Part,Single*%
G01*
G75*
%TA.AperFunction,ComponentDrill*%
%ADD37C,1.23000*%
%ADD38C,1.60000*%
%ADD39C,1.00000*%
%ADD40C,1.10000*%
%ADD41C,1.06000*%
%TA.AperFunction,ViaDrill,NotFilled*%
%ADD42C,0.71120*%
D37*
X11099800Y6380251D02*
D03*
X11353800D02*
D03*
X11607800D02*
D03*
X11226800Y10558551D02*
D03*
X11480800D02*
D03*
X11734800D02*
D03*
D38*
X9512300Y7874000D02*
D03*
Y8382000D02*
D03*
X15582899Y7696200D02*
D03*
Y8204200D02*
D03*
D39*
X13855701Y9810298D02*
D03*
Y8960302D02*
D03*
X13944600Y7092498D02*
D03*
Y6242502D02*
D03*
D40*
X12052300Y8751001D02*
D03*
Y7250999D02*
D03*
X10833100Y8725601D02*
D03*
Y7225599D02*
D03*
D41*
X13700603Y10464800D02*
D03*
X12664603D02*
D03*
X13878403Y5422900D02*
D03*
X12842403D02*
D03*
D42*
X11214100Y6680200D02*
D03*
X12750800Y5969000D02*
D03*
X10350500Y8115300D02*
D03*
X10147300Y8636000D02*
D03*
X12217400Y7848600D02*
D03*
X11328400Y9283700D02*
D03*
X13550900Y6807200D02*
D03*
%TF.MD5,2cfc87031a6f393bb8888c5b732c2347*%
M02*
