%TF.GenerationSoftware,Altium Limited,Altium Designer,25.4.2 (15)*%
G04 Layer_Color=8388736*
%FSLAX45Y45*%
%MOMM*%
%TF.SameCoordinates,66F4134D-3AC1-430F-A947-466B4C1FB81F*%
%TF.FilePolarity,Negative*%
%TF.FileFunction,Soldermask,Top*%
%TF.Part,Single*%
G01*
G75*
%TA.AperFunction,SMDPad,CuDef*%
%ADD25R,3.52320X1.46320*%
%ADD26R,1.46320X3.52320*%
%TA.AperFunction,ComponentPad*%
%ADD27C,2.04820*%
%ADD28R,2.04820X2.04820*%
%ADD29R,2.60320X2.60320*%
%ADD30C,2.60320*%
%ADD31C,1.71120*%
%ADD32C,1.85320*%
%ADD33R,1.79400X1.79400*%
%ADD34C,1.79400*%
%TA.AperFunction,ViaPad*%
%ADD35C,1.47320*%
D25*
X12344400Y6380800D02*
D03*
Y5785800D02*
D03*
D26*
X10609900Y10591800D02*
D03*
X10014900D02*
D03*
D27*
X11099800Y6380251D02*
D03*
X11353800D02*
D03*
X11226800Y10558551D02*
D03*
X11480800D02*
D03*
D28*
X11607800Y6380251D02*
D03*
X11734800Y10558551D02*
D03*
D29*
X9512300Y7874000D02*
D03*
X15582899Y8204200D02*
D03*
D30*
X9512300Y8382000D02*
D03*
X15582899Y7696200D02*
D03*
D31*
X13855701Y9810298D02*
D03*
Y8960302D02*
D03*
X13944600Y7092498D02*
D03*
Y6242502D02*
D03*
D32*
X12052300Y8751001D02*
D03*
Y7250999D02*
D03*
X10833100Y8725601D02*
D03*
Y7225599D02*
D03*
D33*
X13700603Y10464800D02*
D03*
X13878403Y5422900D02*
D03*
D34*
X12664603Y10464800D02*
D03*
X12842403Y5422900D02*
D03*
D35*
X11214100Y6680200D02*
D03*
X12750800Y5969000D02*
D03*
X10350500Y8115300D02*
D03*
X10147300Y8636000D02*
D03*
X12217400Y7848600D02*
D03*
X11328400Y9283700D02*
D03*
X13550900Y6807200D02*
D03*
%TF.MD5,e75fafa0626c71a578bb831cd72ac1af*%
M02*
