%TF.GenerationSoftware,Altium Limited,Altium Designer,25.4.2 (15)*%
G04 Layer_Physical_Order=2*
G04 Layer_Color=16711680*
%FSLAX45Y45*%
%MOMM*%
%TF.SameCoordinates,66F4134D-3AC1-430F-A947-466B4C1FB81F*%
%TF.FilePolarity,Positive*%
%TF.FileFunction,Copper,L2,Bot,Signal*%
%TF.Part,Single*%
G01*
G75*
%TA.AperFunction,Conductor*%
%ADD13C,1.01600*%
%TA.AperFunction,ComponentPad*%
%ADD14C,1.84500*%
%ADD15R,1.84500X1.84500*%
%ADD16R,2.40000X2.40000*%
%ADD17C,2.40000*%
%ADD18C,1.50800*%
%ADD19C,1.65000*%
%ADD20R,1.59000X1.59000*%
%ADD21C,1.59000*%
%TA.AperFunction,ViaPad*%
%ADD22C,1.27000*%
D13*
X10515600Y6680200D02*
X11214100D01*
X10147300Y7048500D02*
X10515600Y6680200D01*
X12750800Y5969000D02*
X13546037Y6764238D01*
Y6802338D02*
X13550900Y6807200D01*
X13546037Y6764238D02*
Y6802338D01*
X10350500Y8115300D02*
Y9753600D01*
X10757743Y10160843D01*
X10829092D02*
X11226800Y10558551D01*
X10757743Y10160843D02*
X10829092D01*
X10147300Y7048500D02*
Y8636000D01*
X11963400Y7848600D02*
X12217400D01*
X11328400Y8483600D02*
X11963400Y7848600D01*
X11328400Y8483600D02*
Y9283700D01*
D14*
X11099800Y6380251D02*
D03*
X11353800D02*
D03*
X11226800Y10558551D02*
D03*
X11480800D02*
D03*
D15*
X11607800Y6380251D02*
D03*
X11734800Y10558551D02*
D03*
D16*
X9512300Y7874000D02*
D03*
X15582899Y8204200D02*
D03*
D17*
X9512300Y8382000D02*
D03*
X15582899Y7696200D02*
D03*
D18*
X13855701Y9810298D02*
D03*
Y8960302D02*
D03*
X13944600Y7092498D02*
D03*
Y6242502D02*
D03*
D19*
X12052300Y8751001D02*
D03*
Y7250999D02*
D03*
X10833100Y8725601D02*
D03*
Y7225599D02*
D03*
D20*
X13700603Y10464800D02*
D03*
X13878403Y5422900D02*
D03*
D21*
X12664603Y10464800D02*
D03*
X12842403Y5422900D02*
D03*
D22*
X11214100Y6680200D02*
D03*
X12750800Y5969000D02*
D03*
X10350500Y8115300D02*
D03*
X10147300Y8636000D02*
D03*
X12217400Y7848600D02*
D03*
X11328400Y9283700D02*
D03*
X13550900Y6807200D02*
D03*
%TF.MD5,5fe132f14138eb64145de3cdb878978b*%
M02*
